{"title":"Bab el shams (2004)","uid":5297761,"size":2937731905,"categoryP":"video","categoryS":"movies","magnet":"?xt=urn:btih:2c455fa0be79f0d6d597364c96878355cacf1712&amp;dn=Bab+el+shams+%282004%29&amp;tr=udp%3A%2F%2Ftracker.openbittorrent.com%3A80&amp;tr=udp%3A%2F%2Fopen.demonii.com%3A1337&amp;tr=udp%3A%2F%2Ftracker.coppersurfer.tk%3A6969&amp;tr=udp%3A%2F%2Fexodus.desync.com%3A6969","seeders":0,"leechers":1,"uploader":"mfccorrea","files":6,"time":1264115544,"description":"Bab el Shams (Door to the Sun) is the most recent cinematic achievement from Egyptian director Yousri Nasrallah. Adapted from the novel by Lebanese writer Elias Khoury, this ambitious film takes on the weighty goal of covering roughly fifty years of Palestinian history, from 1943 to 1994, and centers around the lives of a group of Palestinian refugees. Split into two parts: The Departure and the Return, Bab el Shams runs just under five hours, but do not let this sway you. While the length is epic-worthy, Bab el Shams is a tour de force, exposing complex storylines and individualized realities. Nasrallah not only succeeds in his large-scale recreations of demanding passages in Palestinian history, but he infuses intimate scenes with a nuanced tenderness. Told through memory and flashback, Palestinians in Bab el Shams are not just a cause but people whose undeniable will to continue is coupled with faults and weaknesses.\n\nPart 1 - The Departure\n   General\n      Complete name : Bab el shams Part1.avi\n      Format : AVI\n      Format/Info : Audio Video Interleave\n      File size : 1.37 GiB\n      Duration : 2h 17mn\n      Overall bit rate : 1 420 Kbps\n      Writing application : VirtualDubMod 1.5.4.1 (build 2178/release)\n      Writing library : VirtualDubMod build 2178/release\n   Video #0\n      ID : 0\n      Format : MPEG-4 Visual\n      Format profile : AdvancedSimple@L5\n      Format settings, BVOP : Yes\n      Format settings, QPel : No\n      Format settings, GMC : No warppoints\n      Format settings, Matrix : Custom\n      Codec ID : XVID\n      Codec ID/Hint : XviD\n      Duration : 2h 17mn\n      Bit rate : 1 030 Kbps\n      Width : 640 pixels\n      Height : 368 pixels\n      Display aspect ratio : 16:9\n      Frame rate : 25.000 fps\n      Resolution : 24 bits\n      Colorimetry : 4:2:0\n      Scan type : Progressive\n      Bits/(Pixel*Frame) : 0.175\n      Stream size : 1 015 MiB (72%)\n      Writing library : XviD 1.2.1 (UTC 2008-12-04)\n   Audio #1\n      ID : 1\n      Format : AC-3\n      Format/Info : Audio Coding 3\n      Codec ID : 2000\n      Duration : 2h 17mn\n      Bit rate mode : Constant\n      Bit rate : 384 Kbps\n      Channel(s) : 2 channels\n      Channel positions : L R\n      Sampling rate : 48.0 KHz\n      Stream size : 379 MiB (27%)\n      Alignment : Split accross interleaves\n      Interleave, duration : 96 ms (2.40 video frames)\n      Interleave, preload duration : 96 ms\n      Language : French\n\nPart 2 - The Return\n   General\n      Complete name : Bab el shams Part2.avi\n      Format : AVI\n      Format/Info : Audio Video Interleave\n      File size : 1.37 GiB\n      Duration : 2h 12mn\n      Overall bit rate : 1 482 Kbps\n      Writing application : VirtualDubMod 1.5.4.1 (build 2178/release)\n      Writing library : VirtualDubMod build 2178/release\n   Video #0\n      ID : 0\n      Format : MPEG-4 Visual\n      Format profile : AdvancedSimple@L5\n      Format settings, BVOP : Yes\n      Format settings, QPel : No\n      Format settings, GMC : No warppoints\n      Format settings, Matrix : Custom\n      Codec ID : XVID\n      Codec ID/Hint : XviD\n      Duration : 2h 12mn\n      Bit rate : 1 091 Kbps\n      Width : 640 pixels\n      Height : 368 pixels\n      Display aspect ratio : 16:9\n      Frame rate : 25.000 fps\n      Resolution : 24 bits\n      Colorimetry : 4:2:0\n      Scan type : Progressive\n      Bits/(Pixel*Frame) : 0.185\n      Stream size : 1.01 GiB (74%)\n      Writing library : XviD 1.2.1 (UTC 2008-12-04)\n   Audio #1\n      ID : 1\n      Format : AC-3\n      Format/Info : Audio Coding 3\n      Codec ID : 2000\n      Duration : 2h 12mn\n      Bit rate mode : Constant\n      Bit rate : 384 Kbps\n      Channel(s) : 2 channels\n      Channel positions : L R\n      Sampling rate : 48.0 KHz\n      Stream size : 363 MiB (26%)\n      Alignment : Split accross interleaves\n      Interleave, duration : 96 ms (2.40 video frames)\n      Interleave, preload duration : 96 ms\n      Language : French\n\nIMDB: tt0406551\n\nFrench, Arabic and English audio; French and Portuguese subtiltes\n\nYousry Nasrallah - Bab el shams [2004] ","torrent":{"xt":"urn:btih:2c455fa0be79f0d6d597364c96878355cacf1712","amp;dn":"Bab+el+shams+%282004%29","amp;tr":["udp%3A%2F%2Ftracker.openbittorrent.com%3A80","udp%3A%2F%2Fopen.demonii.com%3A1337","udp%3A%2F%2Ftracker.coppersurfer.tk%3A6969","udp%3A%2F%2Fexodus.desync.com%3A6969"],"infoHash":"2c455fa0be79f0d6d597364c96878355cacf1712","infoHashBuffer":{"type":"Buffer","data":[44,69,95,160,190,121,240,214,213,151,54,76,150,135,131,85,202,207,23,18]},"announce":[],"urlList":[]}}